<svg width="134" height="134" viewBox="0 0 134 134" fill="none" xmlns="http://www.w3.org/2000/svg">
<circle cx="67" cy="67" r="67" fill="#0A4B6E"/>
<path d="M11.4923 66C11.209 66 11.0673 65.8583 11.0673 65.575V43.764C11.0673 43.4807 11.209 43.339 11.4923 43.339H16.3033C16.5867 43.339 16.7283 43.4807 16.7283 43.764V61.461H21.0123C21.2957 61.461 21.4373 61.6027 21.4373 61.886V65.575C21.4373 65.8583 21.2957 66 21.0123 66H11.4923ZM28.3994 66C28.1387 66 27.912 65.9037 27.7194 65.711L24.3194 62.311C24.1267 62.1297 24.0304 61.903 24.0304 61.631V51.669C24.0304 51.397 24.1267 51.1703 24.3194 50.989L27.7194 47.589C27.912 47.3963 28.1387 47.3 28.3994 47.3H37.4944C37.7777 47.3 37.9194 47.4417 37.9194 47.725V65.575C37.9194 65.8583 37.7777 66 37.4944 66H33.9584C33.811 66 33.6977 65.9717 33.6184 65.915C33.5504 65.8583 33.471 65.7903 33.3804 65.711L32.5304 64.861L31.6804 65.711C31.499 65.9037 31.2724 66 31.0004 66H28.3994ZM30.3884 62.039H31.5784C31.941 62.039 32.1904 61.9653 32.3264 61.818C32.4624 61.6707 32.5304 61.41 32.5304 61.036V51.261H30.3884C30.0144 51.261 29.7594 51.3347 29.6234 51.482C29.4874 51.6293 29.4194 51.89 29.4194 52.264V61.036C29.4194 61.41 29.4874 61.6707 29.6234 61.818C29.7594 61.9653 30.0144 62.039 30.3884 62.039ZM46.6738 71.661C46.3905 71.661 46.2488 71.5193 46.2488 71.236V68.584C46.2488 68.3573 46.3338 68.2327 46.5038 68.21L48.9858 67.581L50.7538 66.646C50.9238 66.5553 51.0088 66.3797 51.0088 66.119V63.331L49.4108 64.81C49.2182 65.0027 48.9915 65.099 48.7308 65.099L45.8408 65.201C45.5802 65.201 45.3535 65.1103 45.1608 64.929L42.0498 61.801C41.8572 61.6197 41.7608 61.393 41.7608 61.121V51.669C41.7608 51.397 41.8572 51.1703 42.0498 50.989L45.4498 47.589C45.6425 47.3963 45.8692 47.3 46.1298 47.3H55.2248C55.5082 47.3 55.6498 47.4417 55.6498 47.725V68.159C55.6498 68.465 55.5535 68.6917 55.3608 68.839L53.0998 70.284L50.2438 71.474C50.0738 71.542 49.9435 71.5873 49.8528 71.61C49.7735 71.644 49.6375 71.661 49.4448 71.661H46.6738ZM48.1188 61.529H49.3088C49.6715 61.529 49.9208 61.4553 50.0568 61.308C50.1928 61.1607 50.2608 60.9 50.2608 60.526V51.261H48.1188C47.7448 51.261 47.4898 51.3347 47.3538 51.482C47.2178 51.6293 47.1498 51.89 47.1498 52.264V60.526C47.1498 60.9 47.2178 61.1607 47.3538 61.308C47.4898 61.4553 47.7448 61.529 48.1188 61.529ZM63.8603 66C63.5996 66 63.373 65.9037 63.1803 65.711L59.7803 62.311C59.5876 62.1297 59.4913 61.903 59.4913 61.631V51.669C59.4913 51.397 59.5876 51.1703 59.7803 50.989L63.1803 47.589C63.373 47.3963 63.5996 47.3 63.8603 47.3H69.0113C69.2833 47.3 69.51 47.3963 69.6913 47.589L73.0913 50.989C73.284 51.1703 73.3803 51.397 73.3803 51.669V61.631C73.3803 61.903 73.284 62.1297 73.0913 62.311L69.6913 65.711C69.51 65.9037 69.2833 66 69.0113 66H63.8603ZM65.8493 62.039H67.0393C67.402 62.039 67.6513 61.9653 67.7873 61.818C67.9233 61.6707 67.9913 61.41 67.9913 61.036V52.264C67.9913 51.89 67.9233 51.6293 67.7873 51.482C67.6513 51.3347 67.402 51.261 67.0393 51.261H65.8493C65.4753 51.261 65.2203 51.3347 65.0843 51.482C64.9483 51.6293 64.8803 51.89 64.8803 52.264V61.036C64.8803 61.41 64.9483 61.6707 65.0843 61.818C65.2203 61.9653 65.4753 62.039 65.8493 62.039ZM87.0029 66C86.7422 66 86.5156 65.9037 86.3229 65.711L82.9229 62.311C82.7302 62.1297 82.6339 61.903 82.6339 61.631V51.669C82.6339 51.397 82.7302 51.1703 82.9229 50.989L86.3229 47.589C86.5156 47.3963 86.7422 47.3 87.0029 47.3H89.6039C89.8759 47.3 90.1026 47.3963 90.2839 47.589L91.1339 48.439V43.764C91.1339 43.4807 91.2756 43.339 91.5589 43.339H96.0979C96.3812 43.339 96.5229 43.4807 96.5229 43.764V65.575C96.5229 65.8583 96.3812 66 96.0979 66H92.5619C92.4146 66 92.3012 65.9717 92.2219 65.915C92.1539 65.8583 92.0746 65.7903 91.9839 65.711L91.1339 64.861L90.2839 65.711C90.1026 65.9037 89.8759 66 89.6039 66H87.0029ZM88.9919 62.039H90.1819C90.5446 62.039 90.7939 61.9653 90.9299 61.818C91.0659 61.6707 91.1339 61.41 91.1339 61.036V51.261H88.9919C88.6179 51.261 88.3629 51.3347 88.2269 51.482C88.0909 51.6293 88.0229 51.89 88.0229 52.264V61.036C88.0229 61.41 88.0909 61.6707 88.2269 61.818C88.3629 61.9653 88.6179 62.039 88.9919 62.039ZM108.099 66C107.986 66 107.861 65.983 107.725 65.949C107.601 65.915 107.482 65.8867 107.368 65.864L104.342 65.116L100.874 63.96C100.534 63.8467 100.364 63.518 100.364 62.974V51.669C100.364 51.397 100.461 51.1703 100.653 50.989L104.053 47.589C104.246 47.3963 104.473 47.3 104.733 47.3H110.173C110.434 47.3 110.661 47.3963 110.853 47.589L114.253 50.989C114.446 51.1703 114.542 51.397 114.542 51.669V58.639H105.413L105.294 60.9L107.708 61.699L112.043 62.005C112.236 62.039 112.332 62.1693 112.332 62.396V65.575C112.332 65.8583 112.191 66 111.907 66H108.099ZM107.419 55.97H107.742C108.298 55.97 108.74 55.7603 109.068 55.341C109.408 54.9217 109.578 54.355 109.578 53.641V53.301C109.578 52.5983 109.408 52.0373 109.068 51.618C108.74 51.1987 108.298 50.989 107.742 50.989H107.402C106.858 50.989 106.422 51.1987 106.093 51.618C105.776 52.0373 105.617 52.5983 105.617 53.301V53.641C105.617 54.355 105.776 54.9217 106.093 55.341C106.422 55.7603 106.864 55.97 107.419 55.97ZM118.302 66C118.019 66 117.877 65.8583 117.877 65.575V43.764C117.877 43.4807 118.019 43.339 118.302 43.339H122.841C123.124 43.339 123.266 43.4807 123.266 43.764V65.575C123.266 65.8583 123.124 66 122.841 66H118.302ZM24.0929 94C23.8096 94 23.6679 93.8583 23.6679 93.575V71.764C23.6679 71.4807 23.8096 71.339 24.0929 71.339H35.7379C36.0213 71.339 36.1629 71.4807 36.1629 71.764V75.436C36.1629 75.7193 36.0213 75.861 35.7379 75.861H29.3289V81.539H34.8879C35.1713 81.539 35.3129 81.6807 35.3129 81.964V85.636C35.3129 85.9193 35.1713 86.061 34.8879 86.061H29.3289V93.575C29.3289 93.8583 29.1873 94 28.9039 94H24.0929ZM43.244 94C42.972 94 42.7453 93.9037 42.564 93.711L39.164 90.311C38.9713 90.1297 38.875 89.903 38.875 89.631V75.725C38.875 75.4417 39.0166 75.3 39.3 75.3H43.839C44.1223 75.3 44.264 75.4417 44.264 75.725V88.951C44.264 89.4837 44.5246 89.75 45.046 89.75H47.375V75.725C47.375 75.4417 47.5166 75.3 47.8 75.3H52.339C52.6223 75.3 52.764 75.4417 52.764 75.725V93.575C52.764 93.8583 52.6223 94 52.339 94H43.244ZM64.3542 94C64.2409 94 64.1162 93.983 63.9802 93.949C63.8556 93.915 63.7366 93.8867 63.6232 93.864L60.5972 93.116L57.1292 91.96C56.7892 91.8467 56.6192 91.518 56.6192 90.974V79.669C56.6192 79.397 56.7156 79.1703 56.9082 78.989L60.3082 75.589C60.5009 75.3963 60.7276 75.3 60.9882 75.3H66.4282C66.6889 75.3 66.9156 75.3963 67.1082 75.589L70.5082 78.989C70.7009 79.1703 70.7972 79.397 70.7972 79.669V86.639H61.6682L61.5492 88.9L63.9632 89.699L68.2982 90.005C68.4909 90.039 68.5872 90.1693 68.5872 90.396V93.575C68.5872 93.8583 68.4456 94 68.1622 94H64.3542ZM63.6742 83.97H63.9972C64.5526 83.97 64.9946 83.7603 65.3232 83.341C65.6632 82.9217 65.8332 82.355 65.8332 81.641V81.301C65.8332 80.5983 65.6632 80.0373 65.3232 79.618C64.9946 79.1987 64.5526 78.989 63.9972 78.989H63.6572C63.1132 78.989 62.6769 79.1987 62.3482 79.618C62.0309 80.0373 61.8722 80.5983 61.8722 81.301V81.641C61.8722 82.355 62.0309 82.9217 62.3482 83.341C62.6769 83.7603 63.1189 83.97 63.6742 83.97ZM74.7609 94C74.4776 94 74.3359 93.8583 74.3359 93.575V75.725C74.3359 75.4417 74.4776 75.3 74.7609 75.3H77.3449C77.5602 75.3 77.7472 75.3963 77.9059 75.589L79.5719 77.51L81.4249 75.504C81.5496 75.368 81.7082 75.3 81.9009 75.3H83.7369C84.0202 75.3 84.1619 75.4417 84.1619 75.725V79.38C84.1619 79.5613 84.1506 79.686 84.1279 79.754C84.1052 79.8107 84.0429 79.873 83.9409 79.941L79.7249 83.052V93.575C79.7249 93.8583 79.5832 94 79.2999 94H74.7609ZM90.0994 94C89.8387 94 89.6121 93.9037 89.4194 93.711L86.5804 90.889C86.3991 90.6963 86.3084 90.4697 86.3084 90.209V79.261H85.5944C85.3111 79.261 85.1694 79.1193 85.1694 78.836V75.725C85.1694 75.4417 85.3111 75.3 85.5944 75.3H86.3084V73.175C86.3084 72.8917 86.4501 72.75 86.7334 72.75H91.2554C91.5387 72.75 91.6804 72.8917 91.6804 73.175V75.3H93.3294C93.6127 75.3 93.7544 75.4417 93.7544 75.725V78.836C93.7544 79.1193 93.6127 79.261 93.3294 79.261H91.6804V88.339C91.6804 88.5543 91.7484 88.73 91.8844 88.866L93.5504 90.549C93.6637 90.651 93.7204 90.821 93.7204 91.059V93.575C93.7204 93.8583 93.5787 94 93.2954 94H90.0994ZM104.43 94C104.317 94 104.192 93.983 104.056 93.949C103.932 93.915 103.813 93.8867 103.699 93.864L100.673 93.116L97.2054 91.96C96.8654 91.8467 96.6954 91.518 96.6954 90.974V79.669C96.6954 79.397 96.7917 79.1703 96.9844 78.989L100.384 75.589C100.577 75.3963 100.804 75.3 101.064 75.3H106.504C106.765 75.3 106.992 75.3963 107.184 75.589L110.584 78.989C110.777 79.1703 110.873 79.397 110.873 79.669V86.639H101.744L101.625 88.9L104.039 89.699L108.374 90.005C108.567 90.039 108.663 90.1693 108.663 90.396V93.575C108.663 93.8583 108.522 94 108.238 94H104.43ZM103.75 83.97H104.073C104.629 83.97 105.071 83.7603 105.399 83.341C105.739 82.9217 105.909 82.355 105.909 81.641V81.301C105.909 80.5983 105.739 80.0373 105.399 79.618C105.071 79.1987 104.629 78.989 104.073 78.989H103.733C103.189 78.989 102.753 79.1987 102.424 79.618C102.107 80.0373 101.948 80.5983 101.948 81.301V81.641C101.948 82.355 102.107 82.9217 102.424 83.341C102.753 83.7603 103.195 83.97 103.75 83.97Z" fill="white"/>
</svg>
